<mxfile host="app.diagrams.net" modified="2024-06-18T02:45:28.622Z" agent="Mozilla/5.0 (Windows NT 10.0; Win64; x64) AppleWebKit/537.36 (KHTML, like Gecko) Chrome/109.0.0.0 Safari/537.36" etag="5p4iKYoTMgf3fcZUxvGg" version="24.5.5" type="github">
  <diagram name="Page-1" id="CPZjo6AZPYOs9dmdvTmk">
    <mxGraphModel dx="1434" dy="707" grid="1" gridSize="10" guides="1" tooltips="1" connect="1" arrows="1" fold="1" page="1" pageScale="1" pageWidth="850" pageHeight="1100" math="0" shadow="0">
      <root>
        <mxCell id="0" />
        <mxCell id="1" parent="0" />
        <mxCell id="PAHaKMEjMDfKcpDdpYia-1" value="PatternTest" style="swimlane;fontStyle=1;align=center;verticalAlign=top;childLayout=stackLayout;horizontal=1;startSize=29.2;horizontalStack=0;resizeParent=1;resizeParentMax=0;resizeLast=0;collapsible=0;marginBottom=0;" vertex="1" parent="1">
          <mxGeometry x="70" y="140" width="158" height="66.2" as="geometry" />
        </mxCell>
        <mxCell id="PAHaKMEjMDfKcpDdpYia-2" style="line;strokeWidth=1;fillColor=none;align=left;verticalAlign=middle;spacingTop=-1;spacingLeft=3;spacingRight=3;rotatable=0;labelPosition=right;points=[];portConstraint=eastwest;strokeColor=inherit;" vertex="1" parent="PAHaKMEjMDfKcpDdpYia-1">
          <mxGeometry y="29.2" width="158" height="8" as="geometry" />
        </mxCell>
        <mxCell id="PAHaKMEjMDfKcpDdpYia-3" value="+void main(String[])" style="text;strokeColor=none;fillColor=none;align=left;verticalAlign=top;spacingLeft=4;spacingRight=4;overflow=hidden;rotatable=0;points=[[0,0.5],[1,0.5]];portConstraint=eastwest;" vertex="1" parent="PAHaKMEjMDfKcpDdpYia-1">
          <mxGeometry y="37.2" width="158" height="29" as="geometry" />
        </mxCell>
        <mxCell id="PAHaKMEjMDfKcpDdpYia-4" value="&lt;&lt;Client&gt;&gt;&#xa;LegacyBank" style="swimlane;fontStyle=1;align=center;verticalAlign=top;childLayout=stackLayout;horizontal=1;startSize=48;horizontalStack=0;resizeParent=1;resizeParentMax=0;resizeLast=0;collapsible=0;marginBottom=0;" vertex="1" parent="1">
          <mxGeometry x="116.5" y="360" width="185" height="88" as="geometry" />
        </mxCell>
        <mxCell id="PAHaKMEjMDfKcpDdpYia-5" style="line;strokeWidth=1;fillColor=none;align=left;verticalAlign=middle;spacingTop=-1;spacingLeft=3;spacingRight=3;rotatable=0;labelPosition=right;points=[];portConstraint=eastwest;strokeColor=inherit;" vertex="1" parent="PAHaKMEjMDfKcpDdpYia-4">
          <mxGeometry y="48" width="185" height="8" as="geometry" />
        </mxCell>
        <mxCell id="PAHaKMEjMDfKcpDdpYia-6" value="+void process(Payment)" style="text;strokeColor=none;fillColor=none;align=left;verticalAlign=top;spacingLeft=4;spacingRight=4;overflow=hidden;rotatable=0;points=[[0,0.5],[1,0.5]];portConstraint=eastwest;" vertex="1" parent="PAHaKMEjMDfKcpDdpYia-4">
          <mxGeometry y="56" width="185" height="32" as="geometry" />
        </mxCell>
        <mxCell id="PAHaKMEjMDfKcpDdpYia-7" value="&lt;&lt;interface&gt;&gt;&#xa;&lt;&lt;Subject&gt;&gt;&#xa;Payment" style="swimlane;fontStyle=1;align=center;verticalAlign=top;childLayout=stackLayout;horizontal=1;startSize=54.857142857142854;horizontalStack=0;resizeParent=1;resizeParentMax=0;resizeLast=0;collapsible=0;marginBottom=0;" vertex="1" parent="1">
          <mxGeometry x="338" y="170" width="259" height="89.85714285714286" as="geometry" />
        </mxCell>
        <mxCell id="PAHaKMEjMDfKcpDdpYia-8" style="line;strokeWidth=1;fillColor=none;align=left;verticalAlign=middle;spacingTop=-1;spacingLeft=3;spacingRight=3;rotatable=0;labelPosition=right;points=[];portConstraint=eastwest;strokeColor=inherit;" vertex="1" parent="PAHaKMEjMDfKcpDdpYia-7">
          <mxGeometry y="54.857142857142854" width="259" height="8" as="geometry" />
        </mxCell>
        <mxCell id="PAHaKMEjMDfKcpDdpYia-9" value="+void makePayment(String,String)" style="text;strokeColor=none;fillColor=none;align=left;verticalAlign=top;spacingLeft=4;spacingRight=4;overflow=hidden;rotatable=0;points=[[0,0.5],[1,0.5]];portConstraint=eastwest;" vertex="1" parent="PAHaKMEjMDfKcpDdpYia-7">
          <mxGeometry y="62.857142857142854" width="259" height="27" as="geometry" />
        </mxCell>
        <mxCell id="PAHaKMEjMDfKcpDdpYia-10" value="&lt;&lt;RealSubject&gt;&gt;&#xa;PaymentService" style="swimlane;fontStyle=1;align=center;verticalAlign=top;childLayout=stackLayout;horizontal=1;startSize=48;horizontalStack=0;resizeParent=1;resizeParentMax=0;resizeLast=0;collapsible=0;marginBottom=0;" vertex="1" parent="1">
          <mxGeometry x="580" y="360" width="259" height="88" as="geometry" />
        </mxCell>
        <mxCell id="PAHaKMEjMDfKcpDdpYia-11" style="line;strokeWidth=1;fillColor=none;align=left;verticalAlign=middle;spacingTop=-1;spacingLeft=3;spacingRight=3;rotatable=0;labelPosition=right;points=[];portConstraint=eastwest;strokeColor=inherit;" vertex="1" parent="PAHaKMEjMDfKcpDdpYia-10">
          <mxGeometry y="48" width="259" height="8" as="geometry" />
        </mxCell>
        <mxCell id="PAHaKMEjMDfKcpDdpYia-12" value="+void makePayment(String,String)" style="text;strokeColor=none;fillColor=none;align=left;verticalAlign=top;spacingLeft=4;spacingRight=4;overflow=hidden;rotatable=0;points=[[0,0.5],[1,0.5]];portConstraint=eastwest;" vertex="1" parent="PAHaKMEjMDfKcpDdpYia-10">
          <mxGeometry y="56" width="259" height="32" as="geometry" />
        </mxCell>
        <mxCell id="PAHaKMEjMDfKcpDdpYia-13" value="Current Flow of our existing app" style="align=left;spacingLeft=4;" vertex="1" parent="1">
          <mxGeometry x="280" y="60" width="247" height="34" as="geometry" />
        </mxCell>
        <mxCell id="PAHaKMEjMDfKcpDdpYia-14" value="" style="curved=1;dashed=1;startArrow=none;endArrow=none;exitX=0.19;exitY=1;entryX=0.5;entryY=0;rounded=0;" edge="1" parent="1" target="PAHaKMEjMDfKcpDdpYia-4">
          <mxGeometry relative="1" as="geometry">
            <Array as="points">
              <mxPoint x="282" y="279.14" />
            </Array>
            <mxPoint x="337.21000000000004" y="229.99714285714288" as="sourcePoint" />
          </mxGeometry>
        </mxCell>
        <mxCell id="PAHaKMEjMDfKcpDdpYia-15" value="implements" style="curved=1;dashed=1;startArrow=block;startSize=16;startFill=0;endArrow=none;exitX=0.82;exitY=1;entryX=0.5;entryY=0;rounded=0;" edge="1" parent="1" target="PAHaKMEjMDfKcpDdpYia-10">
          <mxGeometry relative="1" as="geometry">
            <Array as="points">
              <mxPoint x="650" y="269.14" />
            </Array>
            <mxPoint x="596.3800000000001" y="219.99714285714288" as="sourcePoint" />
          </mxGeometry>
        </mxCell>
      </root>
    </mxGraphModel>
  </diagram>
</mxfile>
